<?xml version="1.0" encoding="utf-8"?>
<!-- Generator: Adobe Illustrator 23.0.2, SVG Export Plug-In . SVG Version: 6.00 Build 0)  -->
<svg version="1.1" id="Layer_1" xmlns="http://www.w3.org/2000/svg" xmlns:xlink="http://www.w3.org/1999/xlink" x="0px" y="0px"
	 viewBox="0 0 400 200" style="enable-background:new 0 0 400 200;" xml:space="preserve">
<style type="text/css">
	.st0{fill:#A2CC3A;}
	.st1{fill:#38C4F3;}
	.st2{fill:#FFFFFF;stroke:#FFFFFF;stroke-width:1.0009;stroke-miterlimit:10;}
	.st3{fill:#545454;}
</style>
<g>
	
		<rect x="231.6" y="29.2" transform="matrix(0.7071 -0.7071 0.7071 0.7071 18.3057 242.0568)" class="st0" width="139.5" height="139.5"/>
	
		<rect x="29.1" y="29.9" transform="matrix(0.7071 -0.7071 0.7071 0.7071 -41.5038 99.0731)" class="st1" width="139.5" height="139.5"/>
</g>
<path class="st2" d="M171.3,114.1c-4.2,3.6-9.3,5.5-15.2,5.5c-6.1,0-11.4-2.7-13.9-6.1h-0.2v23.7h-8.1V81h8.1v4.2h0.2
	c3.3-3.9,7.8-5.9,13.5-5.9c6.3,0,11.5,1.8,15.6,5.3c4.1,3.6,6.2,8.6,6.2,15.1C177.5,105.8,175.4,110.5,171.3,114.1z M155.6,85.8
	c-3.8,0-7,1.1-9.7,3.5c-2.7,2.3-4,5.8-4,10.4c0,3.5,1.1,6.5,3.4,9.3c2.2,2.8,5.6,4.2,10.1,4.2c3.9,0,7.1-1.2,9.7-3.7
	c2.6-2.5,3.9-5.8,3.9-9.9C169,90.9,163.4,85.8,155.6,85.8z"/>
<path class="st2" d="M236.6,118.6h-8.1V62.2h8.1V118.6z"/>
<path class="st2" d="M288,107.2c-3.6,7-11,12.2-21.9,12.2c-6.3,0-11.6-1.8-15.8-5.2c-4.3-3.5-6.4-8.4-6.4-14.7
	c0-6.6,2.1-11.7,6.4-15.1c4.2-3.5,9.5-5.2,15.8-5.2c10,0,17.1,3.9,21.2,11.8l-7,2.7c-2.8-5.3-7.5-8-14.2-8
	c-9.4,0-14.6,5.4-14.6,13.7c0,4.4,1.4,7.8,4.2,10.1c2.9,2.3,6.3,3.5,10.4,3.5c4.1,0,7.4-0.9,9.9-2.7c2.4-1.9,4.2-3.8,5.1-5.9
	L288,107.2z"/>
<path class="st2" d="M302,118.6h-8.1V62.2h8.1V118.6z"/>
<path class="st2" d="M319.7,75.2h-8.1v-8.5h8.1V75.2z M319.7,118.6h-8.1V81h8.1V118.6z"/>
<path class="st2" d="M325.7,81h10.1l11.4,12.8h0.2L358.3,81h9.4l-15.5,17.9l17.9,19.6H360l-12.7-14.2h-0.2l-12,14.2h-9.7l17.1-19.4
	L325.7,81z"/>
<g>
	<path class="st3" d="M178.7,81h10.2l11.4,12.8h0.2L211.2,81h9.4l-15.5,17.9l17.9,19.6h-10.1l-12.7-14.2H200l-12,14.2h-9.7
		l17.1-19.4L178.7,81z"/>
</g>
</svg>
